<svg width="33" height="34" viewBox="0 0 33 34" fill="none" xmlns="http://www.w3.org/2000/svg">
<path d="M11.6226 0.203615C10.2717 0.427664 8.90108 1.36999 8.22893 2.52319C7.99829 2.92516 7.95216 2.9647 7.76106 2.9647C7.44475 2.9647 6.43653 3.27441 6.01479 3.49846C5.00656 4.03882 4.18285 4.8823 3.67544 5.89711C3.24711 6.76036 3.16145 7.12938 3.14168 8.19032L3.12191 9.10629L2.71994 9.35011C2.21253 9.65323 1.50743 10.3517 1.21089 10.8328C0.769381 11.5642 0.486023 12.5395 0.486023 13.3105C0.486023 14.4769 1.00661 15.7158 1.85668 16.579L2.27842 17.0007L1.85668 17.4225C0.0708724 19.2149 0.0445135 22.055 1.79738 23.8804C2.08073 24.1769 2.49589 24.5262 2.71994 24.658L3.12191 24.8952L3.14168 25.8046C3.16145 26.8457 3.24711 27.2279 3.64249 28.0517C4.4069 29.6332 6.0082 30.8193 7.62926 31.0104L7.98511 31.0566L8.23552 31.4849C9.23715 33.218 11.4381 34.1801 13.448 33.7649C14.4628 33.5606 15.2931 33.0994 16.0509 32.3284L16.4924 31.8737L16.9076 32.302C18.331 33.7583 20.2881 34.2328 22.1793 33.5738C23.2008 33.2246 24.2287 32.3811 24.7559 31.4783C24.9734 31.1027 25.0393 31.0368 25.1908 31.0368C25.5137 31.0368 26.4034 30.7798 26.8844 30.5426C27.9124 30.0352 28.8284 29.106 29.3424 28.0517C29.7377 27.2279 29.8234 26.8457 29.8432 25.8046L29.863 24.8952L30.2649 24.658C30.489 24.5262 30.9041 24.1769 31.1875 23.8804C32.6702 22.3318 32.9074 20.0847 31.774 18.2132C31.6488 18.0156 31.3588 17.6597 31.1282 17.4225L30.713 16.9942L31.1282 16.5724C32.914 14.7668 32.9403 11.9464 31.1875 10.1211C30.9041 9.82457 30.489 9.47531 30.2649 9.34352L29.863 9.10629L29.8432 8.19691C29.8234 7.15574 29.7377 6.77354 29.3424 5.94983C28.8547 4.94819 28.0244 4.07835 27.036 3.538C26.5681 3.281 25.5665 2.9647 25.2238 2.9647C25.0327 2.9647 24.9866 2.92516 24.7559 2.52319C24.4199 1.94329 23.695 1.21184 23.1019 0.862585C21.0525 -0.356509 18.5616 -0.0204346 16.9076 1.69948L16.4924 2.12781L16.0509 1.67312C14.8582 0.460613 13.2701 -0.0665625 11.6226 0.203615ZM13.2305 2.21347C14.2717 2.47706 15.1152 3.35349 15.4051 4.44738C15.4776 4.73732 15.504 5.18542 15.504 6.17388V7.51158H15.2602C14.8648 7.51158 14.1201 7.6961 13.7379 7.88061C13.2239 8.13102 12.7692 8.60547 12.4925 9.19196C11.9258 10.3979 12.2355 11.9399 13.2042 12.7306C13.7511 13.1787 14.4826 13.4423 15.1547 13.4423H15.504V14.7273V16.0123H13.2305H10.9571V17.2973C10.9571 18.6811 10.9373 18.7931 10.6012 19.1029C10.3574 19.3335 9.76433 19.373 9.4612 19.1819C9.03946 18.9183 9.0131 18.8261 8.99333 17.3566L8.97357 16.0189L6.75283 15.9991L4.53211 15.9793L4.0906 15.7685C3.24052 15.3665 2.6804 14.6416 2.50906 13.7257C2.33114 12.7504 2.8056 11.6631 3.66885 11.0766C4.1499 10.7537 4.48598 10.6549 5.25697 10.6153L5.98184 10.5758L6.00161 9.60052L6.02138 8.63183H5.55351H5.09223V8.18373C5.09223 7.10961 5.71166 6.01572 6.67376 5.40288C7.26683 5.02727 7.67539 4.92184 8.565 4.91525H9.37554L9.51392 4.48692C9.73138 3.82136 9.94884 3.43256 10.3376 3.03059C11.0955 2.23983 12.1696 1.93012 13.2305 2.21347ZM21.27 2.20688C21.8235 2.35186 22.2387 2.60226 22.6472 3.03059C23.036 3.43256 23.2535 3.82136 23.4709 4.48692L23.6093 4.91525H24.4198C25.0788 4.91525 25.2963 4.9416 25.6126 5.06022C26.9635 5.56104 27.8926 6.83285 27.8926 8.18373V8.63183H27.4313H26.9635L26.9832 9.60052L27.003 10.5758L27.7279 10.6153C28.7163 10.668 29.2633 10.9053 29.8234 11.5247C31.0359 12.869 30.5812 14.9711 28.8943 15.7685C28.4528 15.9793 28.4462 15.9793 27.2205 15.9991L25.9816 16.0255V15.7685C25.9816 15.3731 25.7971 14.6285 25.6126 14.2463C25.3622 13.7323 24.8877 13.2842 24.2946 13.0008C23.8531 12.7899 23.7213 12.757 23.1612 12.7306C22.4363 12.6977 21.9158 12.8295 21.3556 13.1853C20.578 13.6861 20.0509 14.6812 20.0509 15.663V16.0123H18.7659H17.4809V13.7388V11.4654H16.1959C14.8121 11.4654 14.7 11.4456 14.3903 11.1096C14.1597 10.8657 14.1201 10.2727 14.3112 9.96954C14.5748 9.5478 14.6671 9.52144 16.1432 9.50167L17.4809 9.4819V7.15574C17.4809 5.28427 17.5007 4.76368 17.5797 4.44738C18.0147 2.78019 19.6489 1.78514 21.27 2.20688ZM23.5237 14.8261C23.9454 15.0831 23.9717 15.1754 23.9915 16.6449L24.0113 17.9826L26.232 18.0024L28.4528 18.0221L28.8943 18.233C30.0409 18.7734 30.6867 19.9661 30.4692 21.1325C30.3045 22.0287 29.7377 22.7535 28.8943 23.1489C28.5055 23.3268 28.3605 23.3598 27.7279 23.3927L27.003 23.4257L26.9832 24.3944L26.9635 25.3697H27.4313H27.8926V25.8178C27.8926 26.6283 27.5961 27.3531 27.003 27.9923C26.5747 28.4536 26.1595 28.737 25.6126 28.9413C25.2963 29.0599 25.0788 29.0862 24.4198 29.0862H23.6093L23.4709 29.5146C23.2535 30.1801 23.036 30.5689 22.6472 30.9709C21.013 32.6842 18.1926 31.8869 17.5797 29.5541C17.5072 29.2642 17.4809 28.8161 17.4809 27.8276V26.4899H17.7313C18.1201 26.4899 18.8647 26.3054 19.2469 26.1209C19.7609 25.8705 20.2156 25.396 20.4924 24.8095C21.1579 23.4059 20.6308 21.6531 19.3392 20.9677C18.8647 20.7107 18.2914 20.5592 17.8301 20.5592H17.4809V19.2742V17.9892H19.7543H22.0278V16.7042C22.0278 15.2874 22.0476 15.182 22.4232 14.8657C22.6868 14.6482 23.2008 14.6285 23.5237 14.8261ZM7.00324 18.233C7.00324 18.6284 7.18775 19.373 7.37227 19.7552C7.62267 20.2692 8.09713 20.7239 8.68362 21.0007C9.85 21.5542 11.3393 21.2775 12.1564 20.3615C12.6309 19.8277 12.934 19.0435 12.934 18.3384V17.9892H14.219H15.504V20.2626V22.5361H16.789C18.1728 22.5361 18.2848 22.5559 18.5945 22.8919C18.8252 23.1357 18.8647 23.7288 18.6736 24.0319C18.41 24.4537 18.3178 24.48 16.8417 24.4998L15.504 24.5196V26.8457C15.504 28.7172 15.4842 29.2378 15.4051 29.5541C14.9702 31.2213 13.336 32.2163 11.7149 31.7946C11.1614 31.6496 10.7462 31.3992 10.3376 30.9709C9.94884 30.5689 9.73138 30.1801 9.51392 29.5146L9.37554 29.0796L8.59795 29.0862C7.51065 29.0928 6.88463 28.8556 6.13999 28.1571C5.46125 27.5113 5.09223 26.6942 5.09223 25.8178V25.3697H5.55351H6.02138L6.00161 24.3944L5.98184 23.4257L5.25697 23.3862C4.43985 23.34 4.08401 23.2346 3.62932 22.8985C1.99507 21.6992 2.14004 19.2676 3.89949 18.3253C4.43985 18.0353 4.65072 18.0024 5.90276 17.9958L7.00324 17.9892V18.233Z" fill="#FD6618"/>
</svg>
