<svg width="171" height="64" viewBox="0 0 171 64" fill="none" xmlns="http://www.w3.org/2000/svg">
<path d="M22.7625 0.137499C20.2 0.562499 17.6 2.35 16.325 4.5375C15.8875 5.3 15.8 5.375 15.4375 5.375C14.8375 5.375 12.925 5.9625 12.125 6.3875C10.2125 7.4125 8.65001 9.0125 7.68751 10.9375C6.87501 12.575 6.71251 13.275 6.67501 15.2875L6.63751 17.025L5.87501 17.4875C4.91251 18.0625 3.57501 19.3875 3.01251 20.3C2.17501 21.6875 1.63751 23.5375 1.63751 25C1.63751 27.2125 2.62501 29.5625 4.23751 31.2L5.03751 32L4.23751 32.8C0.850012 36.2 0.800012 41.5875 4.12501 45.05C4.66251 45.6125 5.45001 46.275 5.87501 46.525L6.63751 46.975L6.67501 48.7C6.71251 50.675 6.87501 51.4 7.62501 52.9625C9.07501 55.9625 12.1125 58.2125 15.1875 58.575L15.8625 58.6625L16.3375 59.475C18.2375 62.7625 22.4125 64.5875 26.225 63.8C28.15 63.4125 29.725 62.5375 31.1625 61.075L32 60.2125L32.7875 61.025C35.4875 63.7875 39.2 64.6875 42.7875 63.4375C44.725 62.775 46.675 61.175 47.675 59.4625C48.0875 58.75 48.2125 58.625 48.5 58.625C49.1125 58.625 50.8 58.1375 51.7125 57.6875C53.6625 56.725 55.4 54.9625 56.375 52.9625C57.125 51.4 57.2875 50.675 57.325 48.7L57.3625 46.975L58.125 46.525C58.55 46.275 59.3375 45.6125 59.875 45.05C62.6875 42.1125 63.1375 37.85 60.9875 34.3C60.75 33.925 60.2 33.25 59.7625 32.8L58.975 31.9875L59.7625 31.1875C63.15 27.7625 63.2 22.4125 59.875 18.95C59.3375 18.3875 58.55 17.725 58.125 17.475L57.3625 17.025L57.325 15.3C57.2875 13.325 57.125 12.6 56.375 11.0375C55.45 9.1375 53.875 7.4875 52 6.4625C51.1125 5.975 49.2125 5.375 48.5625 5.375C48.2 5.375 48.1125 5.3 47.675 4.5375C47.0375 3.4375 45.6625 2.05 44.5375 1.3875C40.65 -0.925001 35.925 -0.287501 32.7875 2.975L32 3.7875L31.1625 2.925C28.9 0.624999 25.8875 -0.375001 22.7625 0.137499ZM25.8125 3.95C27.7875 4.45 29.3875 6.1125 29.9375 8.1875C30.075 8.7375 30.125 9.5875 30.125 11.4625V14H29.6625C28.9125 14 27.5 14.35 26.775 14.7C25.8 15.175 24.9375 16.075 24.4125 17.1875C23.3375 19.475 23.925 22.4 25.7625 23.9C26.8 24.75 28.1875 25.25 29.4625 25.25H30.125V27.6875V30.125H25.8125H21.5V32.5625C21.5 35.1875 21.4625 35.4 20.825 35.9875C20.3625 36.425 19.2375 36.5 18.6625 36.1375C17.8625 35.6375 17.8125 35.4625 17.775 32.675L17.7375 30.1375L13.525 30.1L9.31251 30.0625L8.47501 29.6625C6.86251 28.9 5.80001 27.525 5.47501 25.7875C5.13751 23.9375 6.03751 21.875 7.67501 20.7625C8.58751 20.15 9.22501 19.9625 10.6875 19.8875L12.0625 19.8125L12.1 17.9625L12.1375 16.125H11.25H10.375V15.275C10.375 13.2375 11.55 11.1625 13.375 10C14.5 9.2875 15.275 9.0875 16.9625 9.075H18.5L18.7625 8.2625C19.175 7 19.5875 6.2625 20.325 5.5C21.7625 4 23.8 3.4125 25.8125 3.95ZM41.0625 3.9375C42.1125 4.2125 42.9 4.6875 43.675 5.5C44.4125 6.2625 44.825 7 45.2375 8.2625L45.5 9.075H47.0375C48.2875 9.075 48.7 9.125 49.3 9.35C51.8625 10.3 53.625 12.7125 53.625 15.275V16.125H52.75H51.8625L51.9 17.9625L51.9375 19.8125L53.3125 19.8875C55.1875 19.9875 56.225 20.4375 57.2875 21.6125C59.5875 24.1625 58.725 28.15 55.525 29.6625C54.6875 30.0625 54.675 30.0625 52.35 30.1L50 30.15V29.6625C50 28.9125 49.65 27.5 49.3 26.775C48.825 25.8 47.925 24.95 46.8 24.4125C45.9625 24.0125 45.7125 23.95 44.65 23.9C43.275 23.8375 42.2875 24.0875 41.225 24.7625C39.75 25.7125 38.75 27.6 38.75 29.4625V30.125H36.3125H33.875V25.8125V21.5H31.4375C28.8125 21.5 28.6 21.4625 28.0125 20.825C27.575 20.3625 27.5 19.2375 27.8625 18.6625C28.3625 17.8625 28.5375 17.8125 31.3375 17.775L33.875 17.7375V13.325C33.875 9.775 33.9125 8.7875 34.0625 8.1875C34.8875 5.025 37.9875 3.1375 41.0625 3.9375ZM45.3375 27.875C46.1375 28.3625 46.1875 28.5375 46.225 31.325L46.2625 33.8625L50.475 33.9L54.6875 33.9375L55.525 34.3375C57.7 35.3625 58.925 37.625 58.5125 39.8375C58.2 41.5375 57.125 42.9125 55.525 43.6625C54.7875 44 54.5125 44.0625 53.3125 44.125L51.9375 44.1875L51.9 46.025L51.8625 47.875H52.75H53.625V48.725C53.625 50.2625 53.0625 51.6375 51.9375 52.85C51.125 53.725 50.3375 54.2625 49.3 54.65C48.7 54.875 48.2875 54.925 47.0375 54.925H45.5L45.2375 55.7375C44.825 57 44.4125 57.7375 43.675 58.5C40.575 61.75 35.225 60.2375 34.0625 55.8125C33.925 55.2625 33.875 54.4125 33.875 52.5375V50H34.35C35.0875 50 36.5 49.65 37.225 49.3C38.2 48.825 39.0625 47.925 39.5875 46.8125C40.85 44.15 39.85 40.825 37.4 39.525C36.5 39.0375 35.4125 38.75 34.5375 38.75H33.875V36.3125V33.875H38.1875H42.5V31.4375C42.5 28.75 42.5375 28.55 43.25 27.95C43.75 27.5375 44.725 27.5 45.3375 27.875ZM14 34.3375C14 35.0875 14.35 36.5 14.7 37.225C15.175 38.2 16.075 39.0625 17.1875 39.5875C19.4 40.6375 22.225 40.1125 23.775 38.375C24.675 37.3625 25.25 35.875 25.25 34.5375V33.875H27.6875H30.125V38.1875V42.5H32.5625C35.1875 42.5 35.4 42.5375 35.9875 43.175C36.425 43.6375 36.5 44.7625 36.1375 45.3375C35.6375 46.1375 35.4625 46.1875 32.6625 46.225L30.125 46.2625V50.675C30.125 54.225 30.0875 55.2125 29.9375 55.8125C29.1125 58.975 26.0125 60.8625 22.9375 60.0625C21.8875 59.7875 21.1 59.3125 20.325 58.5C19.5875 57.7375 19.175 57 18.7625 55.7375L18.5 54.9125L17.025 54.925C14.9625 54.9375 13.775 54.4875 12.3625 53.1625C11.075 51.9375 10.375 50.3875 10.375 48.725V47.875H11.25H12.1375L12.1 46.025L12.0625 44.1875L10.6875 44.1125C9.13751 44.025 8.46251 43.825 7.60001 43.1875C4.50001 40.9125 4.77501 36.3 8.11251 34.5125C9.13751 33.9625 9.53751 33.9 11.9125 33.8875L14 33.875V34.3375Z" fill="#FD6618"/>
<path d="M68.392 41V29H71.752L72.04 30.464H72.136C72.616 30 73.128 29.592 73.672 29.24C74.232 28.888 74.92 28.712 75.736 28.712C76.552 28.712 77.224 28.88 77.752 29.216C78.296 29.536 78.728 30.008 79.048 30.632C79.544 30.12 80.08 29.672 80.656 29.288C81.232 28.904 81.928 28.712 82.744 28.712C84.072 28.712 85.032 29.16 85.624 30.056C86.232 30.936 86.536 32.12 86.536 33.608V41H82.408V34.136C82.408 33.368 82.312 32.856 82.12 32.6C81.928 32.344 81.624 32.216 81.208 32.216C80.696 32.216 80.136 32.52 79.528 33.128V41H75.4V34.136C75.4 33.368 75.304 32.856 75.112 32.6C74.92 32.344 74.616 32.216 74.2 32.216C73.688 32.216 73.128 32.52 72.52 33.128V41H68.392ZM91.0039 45.512C90.6039 45.512 90.2679 45.488 89.9959 45.44C89.7239 45.392 89.4519 45.336 89.1799 45.272L89.8999 42.152C90.0119 42.168 90.1399 42.192 90.2839 42.224C90.4279 42.272 90.5559 42.296 90.6679 42.296C91.2279 42.296 91.6519 42.184 91.9399 41.96C92.2279 41.736 92.4279 41.448 92.5399 41.096L92.6839 40.568L88.1239 29H92.2519L93.6919 33.608C93.8679 34.152 94.0199 34.704 94.1479 35.264C94.2759 35.824 94.4119 36.408 94.5559 37.016H94.6519C94.7799 36.44 94.8999 35.872 95.0119 35.312C95.1399 34.752 95.2759 34.184 95.4199 33.608L96.6199 29H100.556L96.5239 40.808C96.1079 41.88 95.6599 42.76 95.1799 43.448C94.7159 44.152 94.1479 44.672 93.4759 45.008C92.8199 45.344 91.9959 45.512 91.0039 45.512ZM113.712 41.288C112.608 41.288 111.6 40.76 110.688 39.704H110.592L110.256 41H107.04V24.296H111.168V28.184L111.072 29.912C111.952 29.112 112.936 28.712 114.024 28.712C114.968 28.712 115.792 28.968 116.496 29.48C117.2 29.976 117.744 30.68 118.128 31.592C118.512 32.488 118.704 33.552 118.704 34.784C118.704 36.16 118.464 37.336 117.984 38.312C117.504 39.288 116.88 40.032 116.112 40.544C115.36 41.04 114.56 41.288 113.712 41.288ZM112.704 37.928C113.184 37.928 113.6 37.704 113.952 37.256C114.304 36.808 114.48 36.008 114.48 34.856C114.48 33.864 114.336 33.152 114.048 32.72C113.776 32.288 113.36 32.072 112.8 32.072C112.496 32.072 112.216 32.136 111.96 32.264C111.704 32.392 111.44 32.616 111.168 32.936V37.352C111.408 37.56 111.656 37.712 111.912 37.808C112.184 37.888 112.448 37.928 112.704 37.928ZM120.962 41V29H124.322L124.61 31.064H124.706C125.154 30.248 125.682 29.656 126.29 29.288C126.914 28.904 127.522 28.712 128.114 28.712C128.482 28.712 128.778 28.736 129.002 28.784C129.242 28.816 129.442 28.872 129.602 28.952L128.93 32.504C128.722 32.456 128.514 32.416 128.306 32.384C128.098 32.336 127.858 32.312 127.586 32.312C127.154 32.312 126.698 32.464 126.218 32.768C125.754 33.056 125.378 33.576 125.09 34.328V41H120.962ZM133.387 41.288C132.635 41.288 131.987 41.12 131.443 40.784C130.915 40.432 130.507 39.976 130.219 39.416C129.931 38.856 129.787 38.248 129.787 37.592C129.787 36.344 130.299 35.368 131.323 34.664C132.347 33.944 134.011 33.464 136.315 33.224C136.219 32.392 135.659 31.976 134.635 31.976C134.203 31.976 133.747 32.064 133.267 32.24C132.787 32.4 132.235 32.648 131.611 32.984L130.171 30.296C131.019 29.784 131.875 29.392 132.739 29.12C133.619 28.848 134.523 28.712 135.451 28.712C137.019 28.712 138.243 29.16 139.123 30.056C140.003 30.936 140.443 32.36 140.443 34.328V41H137.083L136.795 39.848H136.699C136.219 40.28 135.707 40.632 135.163 40.904C134.635 41.16 134.043 41.288 133.387 41.288ZM134.827 38.12C135.163 38.12 135.443 38.048 135.667 37.904C135.891 37.744 136.107 37.544 136.315 37.304V35.672C135.339 35.816 134.659 36.032 134.275 36.32C133.907 36.608 133.723 36.92 133.723 37.256C133.723 37.832 134.091 38.12 134.827 38.12ZM143.134 41V29H147.262V41H143.134ZM145.198 27.512C144.526 27.512 143.982 27.328 143.566 26.96C143.15 26.576 142.942 26.072 142.942 25.448C142.942 24.824 143.15 24.328 143.566 23.96C143.982 23.576 144.526 23.384 145.198 23.384C145.87 23.384 146.414 23.576 146.83 23.96C147.246 24.328 147.454 24.824 147.454 25.448C147.454 26.072 147.246 26.576 146.83 26.96C146.414 27.328 145.87 27.512 145.198 27.512ZM150.048 41V29H153.408L153.696 30.44H153.792C154.272 29.976 154.816 29.576 155.424 29.24C156.048 28.888 156.768 28.712 157.584 28.712C158.912 28.712 159.864 29.16 160.44 30.056C161.032 30.936 161.328 32.12 161.328 33.608V41H157.2V34.136C157.2 33.368 157.104 32.856 156.912 32.6C156.72 32.344 156.416 32.216 156 32.216C155.616 32.216 155.296 32.296 155.04 32.456C154.784 32.616 154.496 32.84 154.176 33.128V41H150.048ZM166.465 41.288C165.777 41.288 165.201 41.048 164.737 40.568C164.289 40.072 164.065 39.48 164.065 38.792C164.065 38.088 164.289 37.496 164.737 37.016C165.201 36.536 165.777 36.296 166.465 36.296C167.169 36.296 167.745 36.536 168.193 37.016C168.641 37.496 168.865 38.088 168.865 38.792C168.865 39.48 168.641 40.072 168.193 40.568C167.745 41.048 167.169 41.288 166.465 41.288Z" fill="black"/>
</svg>
